# xmcd CD database file
#
# Track frame offsets:
#	182
#	15792
#	27032
#	44490
#	58872
#	73447
#	90937
#	107875
#	127427
#	146687
#	161532
#	183350
#	206102
#	230842
#	261430
#
# Disc length: 3922 seconds
#
# Revision: 1
# Processed by: cddbd v1.4PL0 Copyright (c) Steve Scherf et al.
# Submitted via: CDex 1.51
#
DISCID=e10f500f
DTITLE=Los Van Van - 25 años
DYEAR=1994
DGENRE=Salsa
TTITLE0=Marilú
TTITLE1=Yuya Martinez
TTITLE2=Aqui se enciende la candela
TTITLE3=El martes
TTITLE4=Chirrín, Chirrán
TTITLE5=La Habana Joven
TTITLE6=Dale dos
TTITLE7=Si una mamita
TTITLE8=Te traigo
TTITLE9=El baile del buey cansa'o
TTITLE10=Ay, Mamá, recíbeme
TTITLE11=¡Qué palo es ese!
TTITLE12=La Habana no aguanta más
TTITLE13=Por encima del nivel
TTITLE14=Anda, ven y muévete
EXTD=YEAR: 1994
EXTT0=
EXTT1=
EXTT2=
EXTT3=
EXTT4=
EXTT5=
EXTT6=
EXTT7=
EXTT8=
EXTT9=
EXTT10=
EXTT11=
EXTT12=
EXTT13=
EXTT14=
PLAYORDER=
